<?xml version="1.0" encoding="UTF-8" standalone="no"?>

<svg
   width="52.916668mm"
   height="10.718812mm"
   viewBox="0 0 52.91667 10.718812"
   version="1.1"
   id="svg1"
   xml:space="preserve"
   xmlns="http://www.w3.org/2000/svg"
   xmlns:svg="http://www.w3.org/2000/svg"><defs
     id="defs1"><clipPath
       clipPathUnits="userSpaceOnUse"
       id="clipPath5"><path
         d="M 0,595.28 H 419.53 V 0 H 0 Z"
         transform="translate(-134.96661,-510.42162)"
         id="path5" /></clipPath><clipPath
       clipPathUnits="userSpaceOnUse"
       id="clipPath7"><path
         d="M 0,595.28 H 419.53 V 0 H 0 Z"
         transform="translate(-161.6067,-504.81081)"
         id="path7" /></clipPath><clipPath
       clipPathUnits="userSpaceOnUse"
       id="clipPath9"><path
         d="M 0,595.28 H 419.53 V 0 H 0 Z"
         id="path9" /></clipPath><clipPath
       clipPathUnits="userSpaceOnUse"
       id="clipPath11"><path
         d="M 0,595.28 H 419.53 V 0 H 0 Z"
         id="path11" /></clipPath><clipPath
       clipPathUnits="userSpaceOnUse"
       id="clipPath13"><path
         d="M 0,595.28 H 419.53 V 0 H 0 Z"
         transform="translate(-207.06391,-491.99391)"
         id="path13" /></clipPath><clipPath
       clipPathUnits="userSpaceOnUse"
       id="clipPath15"><path
         d="M 0,595.28 H 419.53 V 0 H 0 Z"
         transform="translate(-246.42811,-490.23361)"
         id="path15" /></clipPath><clipPath
       clipPathUnits="userSpaceOnUse"
       id="clipPath17"><path
         d="M 0,595.28 H 419.53 V 0 H 0 Z"
         transform="translate(-276.62151,-503.65551)"
         id="path17" /></clipPath><clipPath
       clipPathUnits="userSpaceOnUse"
       id="clipPath19"><path
         d="M 0,595.28 H 419.53 V 0 H 0 Z"
         transform="translate(-298.18891,-500.35521)"
         id="path19" /></clipPath></defs><g
     id="layer-MC0"
     transform="matrix(0.26458334,0,0,0.26458334,204.03941,-41.805379)"><g
       id="g23"><path
         id="path2"
         d="m -651.23555,198.51662 h 80.063 v -40.51204 h -80.063 z"
         style="display:inline;fill:#f4a340;fill-opacity:1;fill-rule:nonzero;stroke:none;stroke-width:0.266526" /><rect
         style="fill:#012b49;fill-opacity:1;stroke-width:1.57005;stroke-linecap:round;stroke-linejoin:round"
         id="rect4"
         width="119.93699"
         height="40.512047"
         x="-771.17255"
         y="158.00458" /><g
         id="g4"
         transform="matrix(0.41540936,0,0,0.41540936,-879.58079,205.29956)"
         style="display:inline"><path
           id="path4"
           d="m 0,0 v -6.491 c -2.806,1.98 -6.326,3.136 -9.352,3.136 -2.915,0 -4.675,-1.431 -4.675,-3.741 0,-6.986 15.182,-6.986 15.182,-19.143 0,-5.941 -4.62,-9.737 -11.717,-9.737 -4.07,0 -7.701,0.991 -9.736,2.696 v 6.546 c 2.31,-2.036 5.556,-3.245 8.636,-3.245 3.356,0 5.281,1.375 5.281,3.795 0,8.306 -15.237,7.701 -15.237,19.143 0,5.886 4.62,9.681 11.882,9.681 C -5.996,2.64 -2.365,1.65 0,0"
           style="fill:#c3d7ee;fill-opacity:1;fill-rule:nonzero;stroke:none"
           transform="matrix(1.3333333,0,0,-1.3333333,312.32789,-87.60482)"
           clip-path="url(#clipPath5)" /><path
           id="path6"
           d="m 0,0 v -5.941 c -1.43,0.66 -3.851,1.485 -6.381,1.485 -5.446,0 -8.856,-3.961 -8.856,-10.066 0,-6.106 3.41,-10.067 8.856,-10.067 2.475,0 4.951,0.825 6.381,1.485 v -5.885 c -1.76,-0.66 -4.565,-1.376 -7.041,-1.376 -8.911,0 -15.567,6.161 -15.567,15.843 0,9.681 6.656,15.842 15.567,15.842 C -4.511,1.32 -1.76,0.605 0,0"
           style="fill:#c3d7ee;fill-opacity:1;fill-rule:nonzero;stroke:none"
           transform="matrix(1.3333333,0,0,-1.3333333,347.84802,-80.12375)"
           clip-path="url(#clipPath7)" /><path
           id="path8"
           d="m 166.8,505.416 h 7.206 V 475.162 H 166.8 Z m 3.575,11.166 c 2.2,0 4.071,-1.595 4.071,-3.85 0,-2.31 -1.871,-3.906 -4.071,-3.906 -2.2,0 -3.961,1.596 -3.961,3.906 0,2.255 1.761,3.85 3.961,3.85"
           style="fill:#c3d7ee;fill-opacity:1;fill-rule:nonzero;stroke:none"
           transform="matrix(1.3333333,0,0,-1.3333333,132.37242,592.95732)"
           clip-path="url(#clipPath9)" /><path
           id="path10"
           d="m 183.293,520.718 h 3.6 v -54.437 h -3.6 z"
           style="fill:#ffa300;fill-opacity:1;fill-rule:nonzero;stroke:#f7a400;stroke-width:1;stroke-linecap:butt;stroke-linejoin:miter;stroke-miterlimit:10;stroke-dasharray:none;stroke-opacity:1"
           transform="matrix(1.3333333,0,0,-1.3333333,132.37242,592.95732)"
           clip-path="url(#clipPath11)" /><path
           id="path12"
           d="m 0,0 c 4.346,0 6.821,2.64 6.821,7.206 0,4.4 -2.475,7.041 -6.821,7.041 H -4.235 V 0 Z m -0.495,20.353 c 9.351,0 14.742,-4.786 14.742,-13.147 0,-8.306 -5.336,-13.037 -14.632,-13.037 h -3.85 v -11.002 h -7.206 v 37.186 z"
           style="fill:#6884c2;fill-opacity:1;fill-rule:nonzero;stroke:none"
           transform="matrix(1.3333333,0,0,-1.3333333,408.45762,-63.03455)"
           clip-path="url(#clipPath13)" /><path
           id="path14"
           d="m 0,0 c 0,6.381 -3.08,10.122 -7.591,10.122 -4.511,0 -7.592,-3.741 -7.592,-10.122 0,-6.271 3.081,-10.012 7.592,-10.012 C -3.08,-10.012 0,-6.271 0,0 m -22.443,0 c 0,9.626 5.885,15.897 14.852,15.897 8.966,0 14.852,-6.271 14.852,-15.897 0,-9.571 -5.886,-15.788 -14.852,-15.788 -8.967,0 -14.852,6.217 -14.852,15.788"
           style="fill:#6884c2;fill-opacity:1;fill-rule:nonzero;stroke:none"
           transform="matrix(1.3333333,0,0,-1.3333333,460.94322,-60.68748)"
           clip-path="url(#clipPath15)" /><path
           id="path16"
           d="m 0,0 v -5.941 c -1.98,1.485 -5.061,2.916 -8.031,2.916 -2.75,0 -4.29,-1.156 -4.29,-3.081 0,-4.621 13.367,-5.611 13.367,-14.577 0,-5.391 -4.126,-8.526 -10.782,-8.526 -4.29,0 -7.536,1.265 -8.966,2.42 v 5.996 c 1.595,-1.43 4.841,-2.971 8.031,-2.971 2.695,0 4.29,1.156 4.29,3.081 0,5.501 -13.367,5.996 -13.367,14.577 0,5.391 4.071,8.526 10.782,8.526 C -4.73,2.42 -1.65,1.21 0,0"
           style="fill:#6884c2;fill-opacity:1;fill-rule:nonzero;stroke:none"
           transform="matrix(1.3333333,0,0,-1.3333333,501.20109,-78.58335)"
           clip-path="url(#clipPath17)" /><path
           id="path18"
           d="m 0,0 h -6.656 v -25.194 h -7.206 V 0 h -4.345 v 5.061 h 4.345 v 5.72 l 7.206,1.211 V 5.061 H 0 Z"
           style="fill:#6884c2;fill-opacity:1;fill-rule:nonzero;stroke:none"
           transform="matrix(1.3333333,0,0,-1.3333333,529.95762,-74.18295)"
           clip-path="url(#clipPath19)" /></g><g
         id="g22"><path
           style="font-size:22.6523px;line-height:1;font-family:'Merriweather Sans';-inkscape-font-specification:'Merriweather Sans';letter-spacing:0px;fill:#012b49;stroke-width:2.29327;stroke-linecap:round;stroke-linejoin:round"
           d="m -586.218,184.37496 c 0,2.61033 1.28304,3.19654 2.90896,3.19654 1.27198,0 2.79836,-0.51985 3.48412,-1.02864 l -0.42031,-1.39365 c -0.4203,0.22121 -1.50425,0.47561 -2.15683,0.47561 -1.20562,0 -1.39365,-0.19909 -1.39365,-2.62138 v -6.38202 h 3.56155 v -1.83608 h -3.56155 v -2.87578 h -1.46001 c -0.3097,1.00652 -0.53091,1.80289 -0.73001,2.31169 -0.26545,0.71894 -0.76318,0.76318 -1.86925,1.08394 v 1.31623 h 1.63698 z"
           id="path22" /><path
           style="font-size:22.6523px;line-height:1;font-family:'Merriweather Sans';-inkscape-font-specification:'Merriweather Sans';letter-spacing:0px;fill:#012b49;stroke-width:2.29327;stroke-linecap:round;stroke-linejoin:round"
           d="m -598.74977,181.22266 c 0,3.60579 1.99093,6.34884 5.54141,6.34884 1.59274,0 3.09699,-0.47561 3.87124,-1.19455 l -0.49773,-1.38259 c -0.56409,0.34288 -1.74759,0.74107 -3.00851,0.74107 -2.04623,0 -3.66109,-1.73653 -3.55048,-4.94413 0.11061,-3.07488 1.88032,-4.30261 3.61685,-4.30261 1.28304,0 2.16789,0.23227 2.83153,0.69682 l 0.38713,-1.92456 c -0.39819,-0.26546 -1.51532,-0.65258 -3.097,-0.65258 -4.05927,0 -6.09444,2.8979 -6.09444,6.61429 z"
           id="path21" /><path
           style="font-size:22.6523px;line-height:1;font-family:'Merriweather Sans';-inkscape-font-specification:'Merriweather Sans';letter-spacing:0px;fill:#012b49;stroke-width:2.29327;stroke-linecap:round;stroke-linejoin:round"
           d="m -611.17093,181.06781 c 0,4.09246 2.00199,6.50369 5.58565,6.50369 1.51532,0 3.42882,-0.45349 4.25837,-1.12819 l -0.46455,-1.39365 c -0.6194,0.36501 -2.30062,0.68577 -3.14123,0.68577 -2.05729,0 -3.70534,-0.9291 -3.84913,-3.89337 0,-0.0774 -0.0111,-0.14379 -0.0111,-0.22121 h 7.77567 c 0.12167,-0.5641 0.12167,-1.30516 0.12167,-2.25638 -0.0996,-3.1523 -2.13472,-4.80034 -4.64549,-4.7561 -3.69427,0.0664 -5.6299,2.78729 -5.6299,6.45944 z m 2.43336,-1.06182 c 0.28758,-2.72093 1.54849,-3.67215 3.06381,-3.67215 2.21214,0 2.61032,1.86926 2.49972,3.67215 z"
           id="path20" /><path
           style="font-size:22.6523px;line-height:1;font-family:'Merriweather Sans';-inkscape-font-specification:'Merriweather Sans';letter-spacing:0px;fill:#012b49;stroke-width:2.29327;stroke-linecap:round;stroke-linejoin:round"
           d="m -616.84506,187.39453 h 2.43335 v -18.40499 h -2.43335 z"
           id="path3" /><path
           style="font-size:22.6523px;line-height:1;font-family:'Merriweather Sans';-inkscape-font-specification:'Merriweather Sans';letter-spacing:0px;fill:#012b49;stroke-width:2.29327;stroke-linecap:round;stroke-linejoin:round"
           d="m -630.37229,181.06781 c 0,4.09246 2.00199,6.50369 5.58565,6.50369 1.51532,0 3.42882,-0.45349 4.25837,-1.12819 l -0.46455,-1.39365 c -0.6194,0.36501 -2.30063,0.68577 -3.14124,0.68577 -2.05729,0 -3.70533,-0.9291 -3.84912,-3.89337 0,-0.0774 -0.0111,-0.14379 -0.0111,-0.22121 h 7.77567 c 0.12167,-0.5641 0.12167,-1.30516 0.12167,-2.25638 -0.0996,-3.1523 -2.13472,-4.80034 -4.6455,-4.7561 -3.69427,0.0664 -5.62989,2.78729 -5.62989,6.45944 z m 2.43335,-1.06182 c 0.28758,-2.72093 1.5485,-3.67215 3.06382,-3.67215 2.21213,0 2.61032,1.86926 2.49971,3.67215 z"
           id="path1" /><path
           style="font-size:22.6523px;line-height:1;font-family:'Merriweather Sans';-inkscape-font-specification:'Merriweather Sans';letter-spacing:0px;fill:#012b49;stroke-width:2.29327;stroke-linecap:round;stroke-linejoin:round"
           d="m -642.55011,186.60922 c 0.59727,0.38713 2.51077,0.96228 4.72291,0.96228 3.29609,0 5.60777,-1.46001 5.60777,-4.57912 0,-2.63245 -2.48865,-4.01504 -4.65655,-5.13217 -2.42229,-1.24985 -3.35139,-1.83607 -3.35139,-3.48411 0,-1.44896 1.61486,-2.05729 3.2076,-2.05729 1.81396,0 2.67669,0.4203 3.45094,0.88485 l 0.49773,-1.94668 c -0.58622,-0.37606 -1.88032,-0.8738 -3.91548,-0.8738 -2.732,0 -5.59671,1.09501 -5.59671,4.32474 0,2.43335 2.12365,4.04821 4.21412,5.06579 2.36699,1.15032 3.72745,1.84714 3.72745,3.50624 0,1.65911 -1.23879,2.33381 -3.35139,2.33381 -1.53743,0 -3.14123,-0.51985 -3.97079,-1.02864 z"
           id="text1" /></g></g></g></svg>
